<svg width="46" height="43" viewBox="0 0 46 43" fill="none" xmlns="http://www.w3.org/2000/svg">
<path d="M30.9625 35.2612L1.73153 15.596C-1.23067 13.6032 -0.223718 9.45402 3.47007 8.47834L34.5373 0.254705C35.1955 0.0231071 35.9007 -0.0520718 36.5945 0.0354082C37.2884 0.122888 37.9509 0.370502 38.5269 0.757708C39.103 1.14491 39.5761 1.66052 39.907 2.26176C40.2378 2.863 40.4168 3.53252 40.4291 4.21476L38.5879 32.102C38.3696 35.4121 33.9247 37.2539 30.9625 35.2612Z" fill="#E9327C"/>
<path d="M21.6913 40.1159L4.47044 7.27059C4.07679 6.5192 3.90356 5.67637 3.96987 4.83504C4.03617 3.99373 4.33942 3.1866 4.84618 2.50269C5.35295 1.81878 6.04352 1.28466 6.84173 0.95921C7.64 0.63376 8.51488 0.529646 9.37 0.65833L41.2845 5.4622C42.0193 5.57281 42.7167 5.85194 43.3192 6.27663C43.9219 6.70133 44.4125 7.25942 44.7508 7.90512C45.0891 8.55081 45.2655 9.26558 45.2654 9.99066C45.2653 10.7158 45.0887 11.4305 44.7502 12.0761L30.0484 40.1175C29.6536 40.8667 29.0546 41.4953 28.3174 41.9342C27.5801 42.373 26.733 42.605 25.8693 42.6049C25.0056 42.6048 24.1586 42.3724 23.4216 41.9332C22.6845 41.4941 22.0857 40.8653 21.6913 40.1159Z" fill="#1DACE3"/>
<path d="M40.3509 5.32081L24.4416 2.92603L4.90869 8.09859L12.7052 22.9742L30.9624 35.2612C31.3652 35.5292 31.8082 35.7345 32.2757 35.8698L39.2103 22.6437L40.3509 5.32081Z" fill="#001A49"/>
</svg>
